<svg id="Layer_1" data-name="Layer 1" xmlns="http://www.w3.org/2000/svg" viewBox="0 0 512 512"><defs><style>.cls-1{fill:#4690e8;}.cls-2{fill:#fff;}</style></defs><circle class="cls-1" cx="256" cy="256" r="239.82"/><path class="cls-2" d="M180.73,368.82a11.76,11.76,0,0,1-8.7-3.23,13.07,13.07,0,0,1-3.87-7.41L133,152.21a5,5,0,0,1-.32-1.45V150a7.19,7.19,0,0,1,6.77-6.77h40q9,0,10,7.09L210.39,276l23.21-74.14a23.86,23.86,0,0,1,3.22-5.64c1.5-2,4-3.07,7.42-3.07h23.2c3.66,0,6.23,1,7.74,3.07a16.66,16.66,0,0,1,2.9,5.64L301.29,276l20.95-125.72c.65-4.72,4-7.09,10-7.09h40a6.82,6.82,0,0,1,5,2.1,6.49,6.49,0,0,1,2.09,4.67,2.55,2.55,0,0,1-.16.81,4.77,4.77,0,0,0-.16,1.45l-35.13,206a13.19,13.19,0,0,1-3.87,7.41,11.77,11.77,0,0,1-8.71,3.23H300.64q-5.47,0-8.38-2.9a16.15,16.15,0,0,1-3.86-5.48l-32.56-92.19-32.56,92.19a17.06,17.06,0,0,1-3.7,5.48q-2.75,2.9-8.22,2.9Z"/></svg>