<svg xmlns="http://www.w3.org/2000/svg" viewBox="0 0 500 500"><defs><style>.cls-1{fill:#e0e0e0;}.cls-2{fill:#ebebeb;}.cls-3{fill:#e6e6e6;}.cls-4{fill:#fafafa;}.cls-5{fill:#f5f5f5;}.cls-6{fill:#263238;}.cls-7{fill:#407bff;}.cls-21,.cls-8{opacity:0.3;}.cls-10,.cls-14,.cls-19,.cls-21,.cls-22,.cls-9{fill:#fff;}.cls-9{opacity:0.5;}.cls-11{fill:#a24e3f;}.cls-12,.cls-17,.cls-18,.cls-20,.cls-23{fill:none;}.cls-12,.cls-17,.cls-20{stroke:#263238;}.cls-12,.cls-20{stroke-miterlimit:10;}.cls-13,.cls-14,.cls-16,.cls-18{opacity:0.2;}.cls-15{fill:#b97964;}.cls-17,.cls-18,.cls-23{stroke-linecap:round;stroke-linejoin:round;}.cls-17,.cls-23{stroke-width:0.75px;}.cls-18{stroke:#000;stroke-width:0.5px;}.cls-19{opacity:0.8;}.cls-20{stroke-width:4px;}.cls-22{opacity:0.6;}.cls-23{stroke:#407bff;}</style></defs><g id="Background_complete" data-name="Background complete"><path class="cls-1" d="M443.92,298.73H263.17a5.87,5.87,0,0,1-5.86-5.86V29.6a5.87,5.87,0,0,1,5.86-5.86H443.92a5.87,5.87,0,0,1,5.86,5.86V292.87A5.87,5.87,0,0,1,443.92,298.73ZM263.17,24a5.61,5.61,0,0,0-5.61,5.61V292.87a5.61,5.61,0,0,0,5.61,5.61H443.92a5.61,5.61,0,0,0,5.61-5.61V29.6A5.61,5.61,0,0,0,443.92,24Z"/><path class="cls-1" d="M235.49,298.73H54.75a5.87,5.87,0,0,1-5.87-5.86V29.6a5.87,5.87,0,0,1,5.87-5.86H235.49a5.86,5.86,0,0,1,5.86,5.86V292.87A5.86,5.86,0,0,1,235.49,298.73ZM54.75,24a5.62,5.62,0,0,0-5.62,5.61V292.87a5.62,5.62,0,0,0,5.62,5.61H235.49a5.61,5.61,0,0,0,5.61-5.61V29.6A5.61,5.61,0,0,0,235.49,24Z"/><rect class="cls-1" y="334.7" width="500" height="0.25"/><rect class="cls-1" x="51.67" y="348.96" width="16.06" height="0.25"/><rect class="cls-1" x="170.35" y="346.25" width="53.53" height="0.25"/><rect class="cls-1" x="68.73" y="358.25" width="36.25" height="0.25"/><rect class="cls-1" x="378.35" y="346.12" width="43.19" height="0.25"/><rect class="cls-1" x="430.45" y="346.12" width="6.33" height="0.25"/><rect class="cls-1" x="316.21" y="352.35" width="53.89" height="0.25"/><g id="freepik--background-complete--inject-481"><polygon class="cls-2" points="439.68 233.98 438.84 187.8 412.95 187.8 412.95 198.33 393.89 198.33 393.89 82.97 357.25 82.97 357.25 128.38 346.25 128.38 346.25 105.7 317.66 105.7 317.66 216.28 277.33 216.28 277.33 177.21 252.05 177.21 252.05 92.5 220.85 92.5 220.85 148.98 191.53 148.98 191.53 270.63 168.81 270.63 168.81 211.39 145.34 211.39 145.34 173.27 120.42 173.27 120.42 144 92.61 158.67 92.61 236.97 63.29 236.97 63.29 220.82 24.12 220.82 24.12 334.31 480.08 334.53 480.08 233.98 439.68 233.98"/><path class="cls-3" d="M147.26,334.37V165.52H116.1v169C126,334.29,147.26,334.37,147.26,334.37Z"/><path class="cls-4" d="M118.88,334.53V241.67H54.76v92.66Z"/><path class="cls-1" d="M196.79,334.39V198.07H160.46V334.38Z"/><rect class="cls-4" x="163.22" y="203.41" width="4.4" height="9.08"/><rect class="cls-4" x="172.03" y="203.41" width="4.4" height="9.08"/><rect class="cls-4" x="180.83" y="203.41" width="4.4" height="9.08"/><rect class="cls-4" x="189.64" y="203.41" width="4.4" height="9.08"/><rect class="cls-4" x="163.22" y="218.64" width="4.4" height="9.08"/><rect class="cls-4" x="172.03" y="218.64" width="4.4" height="9.08"/><rect class="cls-4" x="180.83" y="218.64" width="4.4" height="9.08"/><rect class="cls-4" x="189.64" y="218.64" width="4.4" height="9.08"/><rect class="cls-4" x="163.22" y="233.87" width="4.4" height="9.08"/><rect class="cls-4" x="172.03" y="233.87" width="4.4" height="9.08"/><rect class="cls-4" x="180.83" y="233.87" width="4.4" height="9.08"/><rect class="cls-4" x="189.64" y="233.87" width="4.4" height="9.08"/><rect class="cls-4" x="163.22" y="249.09" width="4.4" height="9.08"/><rect class="cls-4" x="172.03" y="249.09" width="4.4" height="9.08"/><rect class="cls-4" x="180.83" y="249.09" width="4.4" height="9.08"/><rect class="cls-4" x="189.64" y="249.09" width="4.4" height="9.08"/><rect class="cls-4" x="163.22" y="264.32" width="4.4" height="9.08"/><rect class="cls-4" x="172.03" y="264.32" width="4.4" height="9.08"/><rect class="cls-4" x="180.83" y="264.32" width="4.4" height="9.08"/><rect class="cls-4" x="189.64" y="264.32" width="4.4" height="9.08"/><rect class="cls-4" x="163.22" y="279.54" width="4.4" height="9.08"/><rect class="cls-4" x="172.03" y="279.54" width="4.4" height="9.08"/><rect class="cls-4" x="180.83" y="279.54" width="4.4" height="9.08"/><rect class="cls-4" x="189.64" y="279.54" width="4.4" height="9.08"/><rect class="cls-4" x="163.22" y="294.77" width="4.4" height="9.08"/><rect class="cls-4" x="172.03" y="294.77" width="4.4" height="9.08"/><rect class="cls-4" x="180.83" y="294.77" width="4.4" height="9.08"/><rect class="cls-4" x="189.64" y="294.77" width="4.4" height="9.08"/><rect class="cls-4" x="163.22" y="310" width="4.4" height="9.08"/><rect class="cls-4" x="172.03" y="310" width="4.4" height="9.08"/><rect class="cls-4" x="180.83" y="310" width="4.4" height="9.08"/><rect class="cls-4" x="189.64" y="310" width="4.4" height="9.08"/><path class="cls-5" d="M323,334.45V178.65H247.7V334.51S322.43,334.53,323,334.45Z"/><rect class="cls-3" x="253.35" y="184.86" width="9.13" height="10.46"/><rect class="cls-3" x="271.62" y="184.86" width="9.13" height="10.46"/><rect class="cls-3" x="289.88" y="184.86" width="9.13" height="10.46"/><rect class="cls-3" x="308.15" y="184.86" width="9.13" height="10.46"/><rect class="cls-3" x="253.35" y="202.41" width="9.13" height="10.46"/><rect class="cls-3" x="271.62" y="202.41" width="9.13" height="10.46"/><rect class="cls-3" x="289.88" y="202.41" width="9.13" height="10.46"/><rect class="cls-3" x="308.15" y="202.41" width="9.13" height="10.46"/><rect class="cls-3" x="253.35" y="219.95" width="9.13" height="10.46"/><rect class="cls-3" x="271.62" y="219.95" width="9.13" height="10.46"/><rect class="cls-3" x="289.88" y="219.95" width="9.13" height="10.46"/><rect class="cls-3" x="308.15" y="219.95" width="9.13" height="10.46"/><rect class="cls-3" x="253.35" y="237.5" width="9.13" height="10.46"/><rect class="cls-3" x="271.62" y="237.5" width="9.13" height="10.46"/><rect class="cls-3" x="289.88" y="237.5" width="9.13" height="10.46"/><rect class="cls-3" x="308.15" y="237.5" width="9.13" height="10.46"/><rect class="cls-3" x="253.35" y="255.05" width="9.13" height="10.46"/><rect class="cls-3" x="271.62" y="255.05" width="9.13" height="10.46"/><rect class="cls-3" x="289.88" y="255.05" width="9.13" height="10.46"/><rect class="cls-3" x="308.15" y="255.05" width="9.13" height="10.46"/><rect class="cls-3" x="253.35" y="272.59" width="9.13" height="10.46"/><rect class="cls-3" x="271.62" y="272.59" width="9.13" height="10.46"/><rect class="cls-3" x="289.88" y="272.59" width="9.13" height="10.46"/><rect class="cls-3" x="308.15" y="272.59" width="9.13" height="10.46"/><rect class="cls-3" x="253.35" y="290.14" width="9.13" height="10.46"/><rect class="cls-3" x="271.62" y="290.14" width="9.13" height="10.46"/><rect class="cls-3" x="289.88" y="290.14" width="9.13" height="10.46"/><rect class="cls-3" x="308.15" y="290.14" width="9.13" height="10.46"/><rect class="cls-3" x="253.35" y="307.69" width="9.13" height="10.46"/><rect class="cls-3" x="271.62" y="307.69" width="9.13" height="10.46"/><rect class="cls-3" x="289.88" y="307.69" width="9.13" height="10.46"/><rect class="cls-3" x="308.15" y="307.69" width="9.13" height="10.46"/><rect class="cls-4" x="121.84" y="177" width="8.41" height="9.64"/><rect class="cls-4" x="121.84" y="193.16" width="8.41" height="9.64"/><rect class="cls-4" x="121.84" y="209.34" width="8.41" height="9.64"/><rect class="cls-4" x="121.84" y="225.5" width="8.41" height="9.64"/><rect class="cls-4" x="121.84" y="241.67" width="8.41" height="9.64"/><rect class="cls-4" x="121.84" y="257.84" width="8.41" height="9.64"/><rect class="cls-4" x="121.84" y="274.01" width="8.41" height="9.64"/><rect class="cls-4" x="121.84" y="290.18" width="8.41" height="9.64"/><rect class="cls-4" x="133.1" y="177" width="8.41" height="9.64"/><rect class="cls-4" x="133.1" y="193.16" width="8.41" height="9.64"/><rect class="cls-4" x="133.1" y="209.34" width="8.41" height="9.64"/><rect class="cls-4" x="133.1" y="225.5" width="8.41" height="9.64"/><rect class="cls-4" x="133.1" y="241.67" width="8.41" height="9.64"/><rect class="cls-4" x="133.1" y="257.84" width="8.41" height="9.64"/><rect class="cls-4" x="133.1" y="274.01" width="8.41" height="9.64"/><rect class="cls-4" x="133.1" y="290.18" width="8.41" height="9.64"/><rect class="cls-4" x="227.99" y="103.71" width="9.13" height="10.46"/><rect class="cls-4" x="227.99" y="121.25" width="9.13" height="10.46"/><rect class="cls-4" x="227.99" y="137.6" width="9.13" height="10.46"/><rect class="cls-4" x="227.99" y="155.14" width="9.13" height="10.46"/><rect class="cls-4" x="227.99" y="172.68" width="9.13" height="10.46"/><rect class="cls-4" x="227.99" y="190.23" width="9.13" height="10.46"/><rect class="cls-4" x="227.99" y="207.78" width="9.13" height="10.46"/><rect class="cls-4" x="227.99" y="225.33" width="9.13" height="10.46"/><rect class="cls-4" x="365.14" y="88.5" width="9.13" height="10.46"/><rect class="cls-4" x="365.14" y="106.04" width="9.13" height="10.46"/><rect class="cls-4" x="365.14" y="123.59" width="9.13" height="10.46"/><rect class="cls-4" x="365.14" y="141.13" width="9.13" height="10.46"/><rect class="cls-4" x="365.14" y="158.69" width="9.13" height="10.46"/><rect class="cls-4" x="365.14" y="176.23" width="9.13" height="10.46"/><rect class="cls-4" x="365.14" y="193.78" width="9.13" height="10.46"/><rect class="cls-4" x="365.14" y="211.32" width="9.13" height="10.46"/><rect class="cls-3" x="384.69" y="169.1" width="54.99" height="165.43"/><rect class="cls-4" x="392.83" y="177.26" width="16.12" height="10.46"/><rect class="cls-4" x="392.83" y="194.81" width="16.12" height="10.46"/><rect class="cls-4" x="392.83" y="212.35" width="16.12" height="10.46"/><rect class="cls-4" x="392.83" y="229.91" width="16.12" height="10.46"/><rect class="cls-4" x="392.83" y="247.45" width="16.12" height="10.46"/><rect class="cls-4" x="392.83" y="264.99" width="16.12" height="10.46"/><rect class="cls-4" x="392.83" y="282.54" width="16.12" height="10.46"/><rect class="cls-4" x="392.83" y="300.08" width="16.12" height="10.46"/><rect class="cls-4" x="414.39" y="177.26" width="16.12" height="10.46"/><rect class="cls-4" x="414.39" y="194.81" width="16.12" height="10.46"/><rect class="cls-4" x="414.39" y="212.35" width="16.12" height="10.46"/><rect class="cls-4" x="414.39" y="229.91" width="16.12" height="10.46"/><rect class="cls-4" x="414.39" y="247.45" width="16.12" height="10.46"/><rect class="cls-4" x="414.39" y="264.99" width="16.12" height="10.46"/><rect class="cls-4" x="414.39" y="282.54" width="16.12" height="10.46"/><rect class="cls-4" x="414.39" y="300.08" width="16.12" height="10.46"/><path class="cls-1" d="M354.71,334.47V220h-24V334.46Z"/><rect class="cls-4" x="332.54" y="224.59" width="2.91" height="7.8"/><rect class="cls-4" x="338.36" y="224.59" width="2.91" height="7.8"/><rect class="cls-4" x="344.17" y="224.59" width="2.91" height="7.8"/><rect class="cls-4" x="349.98" y="224.59" width="2.91" height="7.8"/><rect class="cls-4" x="332.54" y="237.67" width="2.91" height="7.8"/><rect class="cls-4" x="338.36" y="237.67" width="2.91" height="7.8"/><rect class="cls-4" x="344.17" y="237.67" width="2.91" height="7.8"/><rect class="cls-4" x="349.98" y="237.67" width="2.91" height="7.8"/><rect class="cls-4" x="332.54" y="250.75" width="2.91" height="7.8"/><rect class="cls-4" x="338.36" y="250.75" width="2.91" height="7.8"/><rect class="cls-4" x="344.17" y="250.75" width="2.91" height="7.8"/><rect class="cls-4" x="349.98" y="250.75" width="2.91" height="7.8"/><rect class="cls-4" x="332.54" y="263.83" width="2.91" height="7.8"/><rect class="cls-4" x="338.36" y="263.83" width="2.91" height="7.8"/><rect class="cls-4" x="344.17" y="263.83" width="2.91" height="7.8"/><rect class="cls-4" x="349.98" y="263.83" width="2.91" height="7.8"/><rect class="cls-4" x="332.54" y="276.92" width="2.91" height="7.8"/><rect class="cls-4" x="338.36" y="276.92" width="2.91" height="7.8"/><rect class="cls-4" x="344.17" y="276.92" width="2.91" height="7.8"/><rect class="cls-4" x="349.98" y="276.92" width="2.91" height="7.8"/><rect class="cls-4" x="332.54" y="290" width="2.91" height="7.8"/><rect class="cls-4" x="338.36" y="290" width="2.91" height="7.8"/><rect class="cls-4" x="344.17" y="290" width="2.91" height="7.8"/><rect class="cls-4" x="349.98" y="290" width="2.91" height="7.8"/><rect class="cls-4" x="332.54" y="303.09" width="2.91" height="7.8"/><rect class="cls-4" x="338.36" y="303.09" width="2.91" height="7.8"/><rect class="cls-4" x="344.17" y="303.09" width="2.91" height="7.8"/><rect class="cls-4" x="349.98" y="303.09" width="2.91" height="7.8"/><rect class="cls-4" x="332.54" y="316.17" width="2.91" height="7.8"/><rect class="cls-4" x="338.36" y="316.17" width="2.91" height="7.8"/><rect class="cls-4" x="344.17" y="316.17" width="2.91" height="7.8"/><rect class="cls-4" x="349.98" y="316.17" width="2.91" height="7.8"/><rect class="cls-3" x="59.62" y="245.55" width="7.77" height="6.55"/><rect class="cls-3" x="75.17" y="245.55" width="7.77" height="6.55"/><rect class="cls-3" x="90.7" y="245.55" width="7.77" height="6.55"/><rect class="cls-3" x="106.25" y="245.55" width="7.77" height="6.55"/><rect class="cls-3" x="59.62" y="256.52" width="7.77" height="6.55"/><rect class="cls-3" x="75.17" y="256.52" width="7.77" height="6.55"/><rect class="cls-3" x="90.7" y="256.52" width="7.77" height="6.55"/><rect class="cls-3" x="106.25" y="256.52" width="7.77" height="6.55"/><rect class="cls-3" x="59.62" y="267.49" width="7.77" height="6.55"/><rect class="cls-3" x="75.17" y="267.49" width="7.77" height="6.55"/><rect class="cls-3" x="90.7" y="267.49" width="7.77" height="6.55"/><rect class="cls-3" x="106.25" y="267.49" width="7.77" height="6.55"/><rect class="cls-3" x="59.62" y="278.46" width="7.77" height="6.55"/><rect class="cls-3" x="75.17" y="278.46" width="7.77" height="6.55"/><rect class="cls-3" x="90.7" y="278.46" width="7.77" height="6.55"/><rect class="cls-3" x="106.25" y="278.46" width="7.77" height="6.55"/><rect class="cls-3" x="59.62" y="289.43" width="7.77" height="6.55"/><rect class="cls-3" x="75.17" y="289.43" width="7.77" height="6.55"/><rect class="cls-3" x="90.7" y="289.43" width="7.77" height="6.55"/><rect class="cls-3" x="106.25" y="289.43" width="7.77" height="6.55"/><rect class="cls-3" x="59.62" y="300.4" width="7.77" height="6.55"/><rect class="cls-3" x="75.17" y="300.4" width="7.77" height="6.55"/><rect class="cls-3" x="90.7" y="300.4" width="7.77" height="6.55"/><rect class="cls-3" x="106.25" y="300.4" width="7.77" height="6.55"/><rect class="cls-3" x="59.62" y="311.37" width="7.77" height="6.55"/><rect class="cls-3" x="75.17" y="311.37" width="7.77" height="6.55"/><rect class="cls-3" x="90.7" y="311.37" width="7.77" height="6.55"/><rect class="cls-3" x="106.25" y="311.37" width="7.77" height="6.55"/></g><path class="cls-5" d="M38.16,108.66A7.85,7.85,0,0,1,46,100.81a8.18,8.18,0,0,1,2.25.34,14.82,14.82,0,0,1-.17-2.4,16.6,16.6,0,0,1,16.59-16.6,17.22,17.22,0,0,1,3,.28,14.5,14.5,0,0,1,26.9,7.33h.25a13.37,13.37,0,0,1,0,26.74H45.76A7.82,7.82,0,0,1,38.16,108.66Z"/><path class="cls-5" d="M278.69,75.17a7.86,7.86,0,0,1,7.84-7.86,8.31,8.31,0,0,1,2.26.34,13.71,13.71,0,0,1-.18-2.4A16.59,16.59,0,0,1,305.2,48.66a17.21,17.21,0,0,1,3.05.27,14.51,14.51,0,0,1,26.9,7.33h.25a13.37,13.37,0,0,1,0,26.74H286.29A7.82,7.82,0,0,1,278.69,75.17Z"/><path class="cls-5" d="M171,76A3.24,3.24,0,0,1,175.07,73a6.33,6.33,0,0,1-.07-1,6.77,6.77,0,0,1,6.77-6.77,6.51,6.51,0,0,1,1.24.12,5.9,5.9,0,0,1,11,3h.11a5.45,5.45,0,0,1,0,10.89h-20A3.2,3.2,0,0,1,171,76Z"/><path class="cls-5" d="M265.64,130a4,4,0,0,1,4-4,3.91,3.91,0,0,1,1.13.16,9.82,9.82,0,0,1-.07-1.21,8.39,8.39,0,0,1,8.39-8.4,8,8,0,0,1,1.54.15,7.33,7.33,0,0,1,13.6,3.71h.13a6.76,6.76,0,1,1,0,13.51H269.49A4,4,0,0,1,265.64,130Z"/><path class="cls-3" d="M142.15,128.11a5.2,5.2,0,0,1,5.2-5.2,4.67,4.67,0,0,1,1.49.21,12.28,12.28,0,0,1-.1-1.6,11,11,0,0,1,11-11,12.44,12.44,0,0,1,2,.19,9.62,9.62,0,0,1,17.86,4.88h.17a8.88,8.88,0,1,1,0,17.75H147.21A5.19,5.19,0,0,1,142.15,128.11Z"/><path class="cls-3" d="M430.45,99.74A3.71,3.71,0,0,1,434.16,96a3.77,3.77,0,0,1,1.06.15,8.72,8.72,0,0,1-.07-1.14A7.86,7.86,0,0,1,443,87.18a7.72,7.72,0,0,1,1.44.14,6.86,6.86,0,0,1,12.73,3.47h.13a6.33,6.33,0,0,1,0,12.66H434.06A3.71,3.71,0,0,1,430.45,99.74Z"/><path class="cls-3" d="M16.22,461.75c-1.45,1.28,64.42-103,64.42-103H93.33L38.54,461.76Z"/><path class="cls-3" d="M488.08,461.75c1.45,1.28-64.43-103-64.43-103H411l54.8,103.06Z"/></g><g id="Shadow"><path class="cls-5" d="M421.3,428.9c0,30.66-75.75,55.51-169.2,55.51S82.9,459.56,82.9,428.9s75.75-55.51,169.2-55.51S421.3,398.24,421.3,428.9Z"/></g><g id="Character"><rect class="cls-6" x="81.58" y="353.98" width="52.19" height="107.18" rx="10.62"/><rect class="cls-6" x="374.76" y="353.98" width="54.25" height="107.18" rx="10.62" transform="translate(803.77 815.15) rotate(180)"/><path class="cls-7" d="M98.24,298c-1,.19-5.68,5.45-9.47,9.85a21.64,21.64,0,0,0-5.2,14.06c-.07,17.44.38,55.79,1.54,62.39,1.42,8.12,8.87,36.52,10.64,38s13.84,1.84,13.84,1.84,1.78-96.27,0-96.64S98.24,298,98.24,298Z"/><path class="cls-8" d="M98.24,298c-1,.19-5.68,5.45-9.47,9.85a21.64,21.64,0,0,0-5.2,14.06c-.07,17.44.38,55.79,1.54,62.39,1.42,8.12,8.87,36.52,10.64,38s13.84,1.84,13.84,1.84,1.78-96.27,0-96.64S98.24,298,98.24,298Z"/><path class="cls-7" d="M411.6,298c1,.19,5.9,5.45,9.84,9.85a21.22,21.22,0,0,1,5.41,14.06c.06,17.44-.41,55.79-1.61,62.39-1.47,8.12-9.22,36.52-11.06,38s-14.39,1.84-14.39,1.84-1.84-96.27,0-96.64S411.6,298,411.6,298Z"/><path class="cls-8" d="M411.6,298c1,.19,5.9,5.45,9.84,9.85a21.22,21.22,0,0,1,5.41,14.06c.06,17.44-.41,55.79-1.61,62.39-1.47,8.12-9.22,36.52-11.06,38s-14.39,1.84-14.39,1.84-1.84-96.27,0-96.64S411.6,298,411.6,298Z"/><path class="cls-7" d="M412.77,386.25s2.65-77.54.29-92.21c-2-12.52-37.14-82.49-47.39-102.72a41.17,41.17,0,0,0-14-15.94,29.28,29.28,0,0,0-15.07-5.15c-8.83-.27-63.51-.09-81.56,0s-72.72-.25-81.55,0a29.28,29.28,0,0,0-15.07,5.15,41.17,41.17,0,0,0-14,15.94C134.21,211.55,99.07,281.52,97.07,294c-2.36,14.67.29,92.21.29,92.21l-4.11,10.39,8.23,29.95s41.16,4.28,48.22,4.28,12.94-7.34,12.94-7.34l86.64,2.7v.36l5.78-.18,5.79.18v-.36l86.64-2.7s5.88,7.34,12.94,7.34,48.22-4.28,48.22-4.28l8.23-29.95Z"/><path class="cls-8" d="M401.73,366.53C349.24,379.69,276,381.67,255.06,382c-20.9-.3-94.17-2.28-146.66-15.44,0,0-6.18,20.41,0,32.88,0,0,91.08,15.86,146.66,14.22,55.59,1.64,146.67-14.22,146.67-14.22C407.91,386.94,401.73,366.53,401.73,366.53Z"/><path class="cls-6" d="M140,261.53l10-23.09a12.6,12.6,0,0,1,11.52-7.76H348A12.59,12.59,0,0,1,359.29,238l10.81,22.75Z"/><path class="cls-9" d="M358.06,195.82a27.23,27.23,0,0,0-25.27-16.76H177.34a27.22,27.22,0,0,0-25.27,16.76l-26.45,61.27,123.66,1.35v.13l5.78-.06,5.79.06v-.13l123.66-1.35Z"/><path class="cls-10" d="M115.54,292.48s-11.84,6-14.55,13.37-2.47,21,0,25.6,18.83,9.29,34.27,11c4.9.55,25.73,2.13,27.87,0,.89-.89,2.71-15.64-2.22-22.05S115.54,292.48,115.54,292.48Z"/><path class="cls-7" d="M115.18,251.09s-5.44-9.53-7.35-10.08-20.77.77-24.31,1.18c-1.24.14-5.54,1.92-4.9,6.24s1.6,11.31,6,13.41,5.91,1.55,12.28,1.77,15.65-.33,16.39-1.1a3.49,3.49,0,0,0,.85-1.89l3,2.11,3.3-7.09Z"/><ellipse class="cls-11" cx="122.89" cy="384.66" rx="7.83" ry="8.14"/><path class="cls-12" d="M122.51,265.63a129.48,129.48,0,0,0-8.11,16.77A9.66,9.66,0,0,0,118,293.69h0S153.1,313.38,161.32,320"/><path class="cls-6" d="M153.1,258.72c.16-.92,3.51-17.72,5.13-25.85a5.18,5.18,0,0,1,4.93-4.36c11.18,0,42.27-.15,53,0a4.11,4.11,0,0,1,3.88,4.28l2.78,26Z"/><rect class="cls-6" x="170.3" y="196.82" width="41.46" height="27.24" rx="8.87"/><g class="cls-13"><path class="cls-10" d="M153.1,258.72c.16-.92,3.51-17.72,5.13-25.85a5.18,5.18,0,0,1,4.93-4.36c11.18,0,42.27-.15,53,0a4.11,4.11,0,0,1,3.88,4.28l2.78,26Z"/><rect class="cls-10" x="170.3" y="196.82" width="41.46" height="27.24" rx="8.87"/></g><path class="cls-8" d="M117.85,263.33l-3.74-2.71a2.92,2.92,0,0,1-1.28,2.1,10.38,10.38,0,0,1-3.46.54l-1.4,3.09s2.85-1.08,4.92-2.07,1.9-2.14,1.9-2.14Z"/><path class="cls-8" d="M116.66,247.69l-1.54,3.24c1.14,1.41,4.85,5.64,4.85,5.64Z"/><path class="cls-10" d="M393.71,292.48s12.31,6,15.13,13.37,2.56,21,0,25.6-19.57,9.29-35.63,11c-5.09.55-26.74,2.13-29,0-.92-.89-2.82-15.64,2.31-22.05S393.71,292.48,393.71,292.48Z"/><path class="cls-7" d="M394.08,251.09s5.65-9.53,7.65-10.08,21.58.77,25.26,1.18c1.29.14,5.76,1.92,5.1,6.24s-1.66,11.31-6.21,13.41-6.14,1.55-12.76,1.77-16.27-.33-17-1.1a3.45,3.45,0,0,1-.89-1.89l-3.1,2.11-3.44-7.09Z"/><path class="cls-8" d="M257.72,327.93v-.05s-2.17,0-5.89.05-5.9-.05-5.9-.05v.05c-21.36-.08-66-1.1-84.61-7.92,0,0,5,16.94,9.14,21.75s8.87,8.19,19.68,9.32c9,.93,35.31,1.92,55.79,2.56h0c4.25.13,8.25-.09,11.78,0,20.79-.24,46.8-1.62,55.79-2.56,10.81-1.13,15.52-4.52,19.68-9.32S342.34,320,342.34,320C323.68,326.83,279.08,327.85,257.72,327.93Z"/><circle class="cls-11" cx="386.07" cy="384.66" r="8.14" transform="translate(-158.92 385.66) rotate(-45)"/><path class="cls-12" d="M387.44,265s4.53,9.8,7.4,17.28a9.61,9.61,0,0,1-3.7,11.45h0s-36.95,21.46-49.72,26.64"/><path class="cls-6" d="M349.26,256.31c-.17-.95-3.68-18.29-5.39-26.68a5.42,5.42,0,0,0-5.18-4.5c-11.76,0-44.45-.15-55.74,0a4.29,4.29,0,0,0-4.07,4.42L276,256.31Z"/><path class="cls-14" d="M349.26,256.31c-.17-.95-3.68-18.29-5.39-26.68a5.42,5.42,0,0,0-5.18-4.5c-11.76,0-44.45-.15-55.74,0a4.29,4.29,0,0,0-4.07,4.42L276,256.31Z"/><rect class="cls-6" x="289.83" y="193.01" width="45.55" height="29.37" rx="8.87" transform="translate(625.21 415.38) rotate(180)"/><rect class="cls-14" x="289.83" y="193.01" width="45.55" height="29.37" rx="8.87" transform="translate(625.21 415.38) rotate(180)"/><path class="cls-8" d="M391.31,263.33l3.88-2.71a2.93,2.93,0,0,0,1.34,2.1,11.13,11.13,0,0,0,3.59.54l1.46,3.09s-3-1.08-5.11-2.07-2-2.14-2-2.14Z"/><path class="cls-8" d="M392.54,247.69l1.6,3.24c-1.18,1.41-5,5.64-5,5.64Z"/><path class="cls-14" d="M256.8,270.05c-1.43,0-124.19-1.57-128.49-.55-2.79.66-5.47,7.94-7,13a6.75,6.75,0,0,0,2.67,7.57c10.06,6.64,37.7,23.3,67.67,28,37.44,5.81,59.68,1.71,66.13-3.88S258.24,270.05,256.8,270.05Z"/><path class="cls-7" d="M291.1,227.84c.22.33,4.69,19.95,4.69,19.95l-4.63,14.92H271.83s11.11-27,13.22-30.48A10.69,10.69,0,0,1,291.1,227.84Z"/><path class="cls-7" d="M334.11,227.84c-.22.33-4.69,19.95-4.69,19.95l4.63,14.92h19.33s-11.1-27-13.22-30.48A10.66,10.66,0,0,0,334.11,227.84Z"/><path class="cls-7" d="M334.64,227.84c-4.34-.28-25.8-3.76-43.54,0l.07,34.87h46.59Z"/><path class="cls-6" d="M324.9,195.79s9.41-5.3,3.82-11c-4.4-4.48-8.3-3.83-14.2-2.76-14.45,2.63-13.6,8.65-13.6,8.65Z"/><path class="cls-15" d="M306.5,226.1s.77-5.54-2.47-15.15l.5-.27c-.45-1.34-.92-2.58-1.35-3.65v0l13.66,7.64c-.17,3.13,1.2,9.09,2,11.6,0,0,1.88,4.52-4.23,5C310.12,231.56,306.5,226.1,306.5,226.1Z"/><path class="cls-16" d="M317.25,219l-7.73-1.4c.8,2.35,3,5.09,8.37,5.08A23.73,23.73,0,0,1,317.25,219Z"/><path class="cls-15" d="M302.78,200.52c1.27,8.4,1.81,13.17,6.46,17.08,7,5.89,16.86,1.22,18.14-7.41,1.14-7.77-1.12-20.2-9.69-22.75A11.72,11.72,0,0,0,302.78,200.52Z"/><path class="cls-6" d="M300.81,190.47c10.31-9.93,20.8-4.36,24.82,1.08l-18,.21c-.79,0-1.23.81-1.06,2.31,0,0,6.24,11.18-2.36,17.46-3.08-1.18-3.7-6.3-4.9-9.27C297.53,197.83,295.27,191.31,300.81,190.47Z"/><path class="cls-15" d="M300.07,207.86a8,8,0,0,0,4.38,4.3c2.63,1,3.33-1.81,2.85-4.44-.42-2.38-1.38-5.24-4.14-5.14S299.08,205.44,300.07,207.86Z"/><path class="cls-6" d="M314.13,201.75c.07.86.59,1.52,1.16,1.46s1-.8.88-1.66-.59-1.52-1.16-1.47S314.05,200.88,314.13,201.75Z"/><path class="cls-6" d="M322.86,201.46c.07.87.59,1.52,1.16,1.47s1-.8.88-1.67-.59-1.52-1.16-1.46S322.78,200.6,322.86,201.46Z"/><path class="cls-11" d="M320.77,201.08s3.12,4,4.15,5.72c-1.11,1.19-3.22.88-3.22.88Z"/><path class="cls-6" d="M312.61,198a.42.42,0,0,0,.4-.09,3.31,3.31,0,0,1,2.81-.91.41.41,0,0,0,.49-.3.41.41,0,0,0-.3-.49,4.11,4.11,0,0,0-3.55,1.11.39.39,0,0,0,0,.57A.45.45,0,0,0,312.61,198Z"/><path class="cls-17" d="M319.11,210.68a5.08,5.08,0,0,1-3.73-1.42"/><path class="cls-18" d="M301.79,205.35a1.54,1.54,0,0,1,1.58-.68,2.62,2.62,0,0,1,1.53.93,4.2,4.2,0,0,1,1,1.94"/><path class="cls-6" d="M327,197.34a.5.5,0,0,0,.19-.13.41.41,0,0,0-.05-.58,4,4,0,0,0-3.59-.84.41.41,0,0,0-.26.51.39.39,0,0,0,.5.26,3.14,3.14,0,0,1,2.83.7A.41.41,0,0,0,327,197.34Z"/><g class="cls-13"><path d="M314.7,207.31a4.14,4.14,0,0,0-1.07,3,2.73,2.73,0,0,1-.28-1.79C313.57,207.63,314.7,207.31,314.7,207.31Z"/></g><polygon class="cls-7" points="317.55 221.68 322.43 226.06 314.29 235.93 302.54 226.02 306.02 220.9 313.37 227.03 317.55 221.68"/><polygon class="cls-19" points="317.55 221.68 322.43 226.06 314.29 235.93 302.54 226.02 306.02 220.9 313.37 227.03 317.55 221.68"/><path class="cls-20" d="M288.71,264.48a25.47,25.47,0,0,1,50.93,0"/><path class="cls-15" d="M294.86,241.51s-3.14-2.09-3.61.67c0,0-3.33,0-3.24,3,0,0-2.66.39-1.52,3.43,0,0-2.09.57-.67,3.24s4.19,5.23,5.62,4.94,1.42-2.19,1.42-2.19,3.81,1.05,3.05-2.09c0,0,1.14.95,1.9-.57s0-2.28,0-2.28.95,1,1.62-.9S296.48,242.85,294.86,241.51Z"/><path class="cls-15" d="M330.28,239.78s3.14-2.09,3.61.67c0,0,3.33,0,3.24,3,0,0,2.66.38,1.52,3.43,0,0,2.09.57.67,3.23s-4.19,5.24-5.62,4.95-1.42-2.19-1.42-2.19-3.81,1.05-3-2.09c0,0-1.14,1-1.9-.57s0-2.29,0-2.29-.95,1-1.62-.89S328.66,241.11,330.28,239.78Z"/><polygon class="cls-6" points="384.56 256.69 249.46 257.61 125.91 256.57 121.72 266.25 249.46 266.5 388.75 266.25 384.56 256.69"/><path class="cls-6" d="M238.51,327.78l1.78,9.22a99.17,99.17,0,0,0,34.58,0l1.53-9.22C265.24,328.15,252.38,327.89,238.51,327.78Z"/><path class="cls-6" d="M265.48,188.76c-.19-1.36-.38-2.82-.58-3.87a1.78,1.78,0,0,0-1.75-1.44H238.87a1.78,1.78,0,0,0-1.75,1.44c-.2,1.05-.39,2.51-.58,3.87a3.23,3.23,0,0,0,3.19,3.7h22.55A3.24,3.24,0,0,0,265.48,188.76Z"/><rect class="cls-6" x="249.45" y="179.06" width="3.12" height="5.48"/><path class="cls-21" d="M141,221.6c0,.05,99-42.55,99-42.55h27.4L133.54,238.94Z"/><polygon class="cls-21" points="129.68 247.69 293.86 179.05 332.79 179.05 148.07 256.91 125.85 256.57 129.68 247.69"/></g><g id="Speech_Bubble" data-name="Speech Bubble"><path class="cls-7" d="M419.91,145.87a25.33,25.33,0,0,0-46,21.11l-3.46,7.21,7.8-.25a25.34,25.34,0,0,0,41.69-28.07Z"/><path class="cls-22" d="M419.91,145.87a25.33,25.33,0,0,0-46,21.11l-3.46,7.21,7.8-.25a25.34,25.34,0,0,0,41.69-28.07Z"/><path class="cls-23" d="M380.22,133.17a25.13,25.13,0,0,0-11.87,20.51"/><path class="cls-23" d="M368.39,157.46a9.21,9.21,0,0,0,.41,3.72"/><path class="cls-7" d="M387.5,155a6.28,6.28,0,0,1,1.6-3.42,6.07,6.07,0,0,1,3.14-1.94,4.92,4.92,0,0,1,3.8.73,4.78,4.78,0,0,1,1.56,1.75,4.89,4.89,0,0,1,5.25-2.33,6,6,0,0,1,3.15,1.92,6.32,6.32,0,0,1,1.62,3.41,7.62,7.62,0,0,1-.93,4.7,10.91,10.91,0,0,1-3.71,3.5c-2.43,1.47-5.63,3.32-5.63,3.32s-2.71-2-5.15-3.47a10.74,10.74,0,0,1-3.73-3.48A7.66,7.66,0,0,1,387.5,155Z"/></g></svg>